<?xml version="1.0" encoding="utf-8"?>
<!-- Generator: Adobe Illustrator 16.0.0, SVG Export Plug-In . SVG Version: 6.00 Build 0)  -->
<!DOCTYPE svg PUBLIC "-//W3C//DTD SVG 1.1//EN" "http://www.w3.org/Graphics/SVG/1.1/DTD/svg11.dtd">
<svg version="1.1" id="Layer_1" xmlns="http://www.w3.org/2000/svg" xmlns:xlink="http://www.w3.org/1999/xlink" x="0px" y="0px"
	 width="207.877px" height="69px" viewBox="0 0.324 207.877 69" enable-background="new 0 0.324 207.877 69" xml:space="preserve">
<g>
	<rect y="0.324" fill="#F68D76" width="57.386" height="69"/>
	<g>
		<path fill="#FFFFFF" d="M202.291,27h-0.893v-0.842h2.67V27h-0.877v2.106h-0.9V27L202.291,27z M204.451,26.158h0.414l1.307,1.398
			l1.307-1.398h0.398v2.948h-0.854V27.7l-0.854,0.946l-0.867-0.946v1.406h-0.852V26.158z"/>
	</g>
	<polygon fill="#FFFFFF" points="82.832,26.152 77.463,35.384 72.063,26.152 67.547,26.152 75.37,39.418 75.37,47.794 
		79.496,47.794 79.496,39.418 87.316,26.152 	"/>
	<path fill="#FFFFFF" d="M93.723,31.597c-4.821,0-8.598,3.658-8.598,8.33c0,4.67,3.776,8.326,8.598,8.326s8.597-3.656,8.597-8.326
		C102.32,35.255,98.544,31.597,93.723,31.597z M93.723,44.599c-2.636,0-4.625-2.008-4.625-4.672s1.989-4.675,4.625-4.675
		c2.593,0,4.626,2.054,4.626,4.675C98.349,42.546,96.316,44.599,93.723,44.599z"/>
	<path fill="#FFFFFF" d="M141.504,44.628c-0.619,0-0.977-0.268-0.977-1.642v-10.93h-4.004v1.739
		c-0.846-1.279-2.637-2.074-4.777-2.074c-4.426,0-7.891,3.605-7.891,8.206c0,4.695,3.393,8.236,7.891,8.236
		c2.857,0,4.412-1.144,5.24-2.211c0.217,0.678,0.625,1.214,1.242,1.636c0.586,0.346,1.314,0.513,2.232,0.513
		c0.559,0,1.34-0.045,1.869-0.256l0.102-0.041v-3.262l-0.186,0.028C142.045,44.599,141.715,44.628,141.504,44.628z M132.238,44.476
		c-2.516,0-4.412-1.956-4.412-4.549c0-2.595,1.896-4.551,4.412-4.551c2.602,0,4.562,1.956,4.562,4.551
		C136.801,42.52,134.84,44.476,132.238,44.476z"/>
	<path fill="#FFFFFF" d="M154.84,31.72c-2.166,0-3.953,0.787-4.777,2.051v-7.619h-4.004v21.643h4.004v-1.716
		c0.824,1.268,2.611,2.054,4.777,2.054c4.426,0,7.893-3.604,7.893-8.205S159.266,31.72,154.84,31.72z M154.35,35.375
		c2.514,0,4.408,1.958,4.408,4.553c0,2.593-1.895,4.549-4.408,4.549c-2.604,0-4.564-1.956-4.564-4.549
		C149.785,37.333,151.746,35.375,154.35,35.375z"/>
	<path fill="#FFFFFF" d="M173.078,31.628c-4.865,0-8.262,3.412-8.262,8.299v0.12c0,4.855,3.357,8.116,8.352,8.116
		c2.713,0,4.814-0.891,6.623-2.802l0.107-0.117l-2.436-2.36l-0.111,0.111c-1.039,1.037-2.129,1.727-4.061,1.727
		c-2.553,0-4.297-1.452-4.49-3.718h12l0.016-0.145c0.061-0.611,0.061-1.271,0.061-1.301
		C180.877,34.962,177.598,31.628,173.078,31.628z M173.078,35.071c1.996,0,3.633,1.35,3.729,3.042H168.9
		C169.148,36.394,170.943,35.071,173.078,35.071z"/>
	<path fill="#FFFFFF" d="M201.213,44.569c-0.203,0.03-0.539,0.06-0.744,0.06c-0.615,0-0.973-0.268-0.973-1.642V26.152h-4.004v7.643
		c-0.848-1.279-2.639-2.075-4.777-2.075c-4.428,0-7.895,3.606-7.895,8.208c0,4.693,3.393,8.234,7.895,8.234
		c2.855,0,4.41-1.144,5.238-2.211c0.219,0.678,0.625,1.214,1.244,1.638c0.584,0.344,1.312,0.511,2.229,0.511
		c0.561,0,1.342-0.043,1.871-0.254l0.104-0.043v-3.26L201.213,44.569z M191.203,44.476c-2.514,0-4.408-1.956-4.408-4.549
		c0-2.595,1.895-4.551,4.408-4.551c2.604,0,4.564,1.956,4.564,4.551C195.768,42.52,193.807,44.476,191.203,44.476z"/>
	<path fill="#FFFFFF" d="M117.008,32.057v1.714c-0.824-1.264-2.611-2.051-4.777-2.051c-4.426,0-7.893,3.577-7.893,8.144
		c0,4.591,3.393,8.055,7.893,8.055c2.482,0,4.082-0.916,4.871-1.9v0.239c0,1.282-0.16,2.867-1.408,3.785
		c-0.773,0.573-1.949,0.887-3.309,0.887c-0.703,0-1.369-0.071-2.014-0.219v3.624c0.77,0.121,1.568,0.188,2.41,0.188
		c2.104,0,4.129-0.635,5.561-1.745c2.225-1.738,2.67-4.24,2.67-7.714V32.057H117.008z M112.721,44.355
		c-2.514,0-4.412-1.931-4.412-4.491c0-2.558,1.898-4.489,4.412-4.489c2.602,0,4.562,1.932,4.562,4.489
		C117.283,42.424,115.322,44.355,112.721,44.355z"/>
	<path fill="#FFFFFF" d="M28.733,17.714c-4.729,0-8.576,3.834-8.576,8.549s3.846,8.548,8.576,8.548c4.729,0,8.575-3.833,8.575-8.548
		C37.309,21.55,33.462,17.714,28.733,17.714z M28.733,30.913c-2.571,0-4.664-2.084-4.664-4.649c0-2.563,2.092-4.648,4.664-4.648
		c2.571,0,4.663,2.084,4.663,4.648C33.396,28.828,31.304,30.913,28.733,30.913z"/>
	<path fill="#FFFFFF" d="M44.088,37.261c-1.611-1.579-3.744-2.448-6.008-2.448c-2.287,0-4.436,0.883-6.051,2.487l-3.296,3.323
		L25.438,37.3c-1.614-1.604-3.763-2.486-6.051-2.486c-2.263,0-4.396,0.868-6.009,2.449c-1.649,1.617-2.557,3.787-2.554,6.11
		c-0.003,2.324,0.903,4.496,2.554,6.113c1.611,1.579,3.745,2.448,6.009,2.448c2.287,0,4.437-0.883,6.051-2.486l3.294-3.323
		l3.297,3.323c1.615,1.602,3.763,2.484,6.049,2.484h0.001c2.264,0,4.396-0.869,6.007-2.446c1.65-1.619,2.556-3.789,2.553-6.112
		C46.645,41.05,45.738,38.878,44.088,37.261z M25.936,43.417l-0.032,0.034l-3.19,3.196c-0.883,0.896-2.062,1.389-3.325,1.389
		c-1.232,0-2.393-0.473-3.269-1.331c-0.898-0.881-1.392-2.063-1.389-3.329c-0.003-1.268,0.491-2.449,1.389-3.33
		c0.876-0.857,2.037-1.332,3.269-1.332c1.263,0,2.442,0.495,3.325,1.39l3.221,3.228L25.936,43.417L25.936,43.417z M41.344,46.704
		c-0.876,0.858-2.036,1.331-3.268,1.331c-1.262,0-2.444-0.491-3.327-1.389l-3.22-3.227v-0.09l0.032-0.035l3.189-3.196
		c0.882-0.893,2.063-1.388,3.326-1.388c1.231,0,2.392,0.475,3.268,1.332c0.898,0.881,1.392,2.062,1.388,3.329
		C42.736,44.642,42.244,45.823,41.344,46.704z"/>
</g>
</svg>
