<?xml version="1.0" encoding="utf-8"?>
<!-- Generator: Adobe Illustrator 16.0.0, SVG Export Plug-In . SVG Version: 6.00 Build 0)  -->
<!DOCTYPE svg PUBLIC "-//W3C//DTD SVG 1.1//EN" "http://www.w3.org/Graphics/SVG/1.1/DTD/svg11.dtd">
<svg version="1.1" id="Layer_1" xmlns="http://www.w3.org/2000/svg" xmlns:xlink="http://www.w3.org/1999/xlink" x="0px" y="0px"
	 width="58.447px" height="69px" viewBox="0 0 58.447 69" enable-background="new 0 0 58.447 69" xml:space="preserve">
<g>
	<rect fill="#F68D76" width="58.447" height="69"/>
	<g>
		<path fill="#FFFFFF" d="M29.226,18.735c-4.346,0-7.879,3.536-7.879,7.876c0,4.344,3.535,7.875,7.879,7.875
			c4.34,0,7.871-3.534,7.871-7.875C37.098,22.271,33.566,18.735,29.226,18.735z M29.226,30.742c-2.28,0-4.135-1.853-4.135-4.131
			c0-2.276,1.853-4.131,4.135-4.131c2.272,0,4.126,1.854,4.126,4.131S31.499,30.742,29.226,30.742z"/>
		<path fill="#FFFFFF" d="M45.562,42.344c0.005-2.044-0.776-4.087-2.345-5.629c-3.076-3.022-8.027-2.997-11.078,0.035l-2.918,2.952
			l-2.917-2.952c-3.049-3.033-7.999-3.058-11.077-0.035c-1.568,1.541-2.346,3.588-2.342,5.629v0.002
			c-0.004,2.047,0.774,4.084,2.342,5.632c3.078,3.021,8.028,2.994,11.077-0.038l2.917-2.951l2.918,2.951
			c3.051,3.035,8.002,3.059,11.078,0.038c1.568-1.547,2.35-3.588,2.345-5.632V42.344L45.562,42.344z M26.586,42.347l-2.892,2.907
			c-1.596,1.625-4.218,1.645-5.839,0.051c-0.824-0.812-1.234-1.887-1.229-2.959v-0.002c-0.005-1.072,0.405-2.146,1.229-2.957
			c1.622-1.596,4.246-1.573,5.839,0.052l2.892,2.905V42.347z M41.82,42.347c0.001,1.071-0.407,2.146-1.232,2.958
			c-1.622,1.596-4.244,1.572-5.84-0.051l-2.891-2.907v-0.002l2.891-2.904c1.596-1.625,4.215-1.647,5.84-0.051
			C41.413,40.198,41.821,41.273,41.82,42.347L41.82,42.347z"/>
	</g>
</g>
</svg>
